<mxfile host="app.diagrams.net" modified="2022-12-19T08:45:06.534Z" agent="5.0 (Windows NT 10.0; Win64; x64) AppleWebKit/537.36 (KHTML, like Gecko) Chrome/100.0.4896.75 Safari/537.36" version="20.7.2" etag="d89HPlts1cKfddV-qr3f" type="github">
  <diagram id="Wb5G7JYzPVq1ubWPYSZX" name="第 1 页">
    <mxGraphModel dx="568" dy="349" grid="1" gridSize="10" guides="1" tooltips="1" connect="1" arrows="1" fold="1" page="1" pageScale="1" pageWidth="827" pageHeight="1169" math="0" shadow="0">
      <root>
        <mxCell id="0" />
        <mxCell id="1" parent="0" />
        <mxCell id="jKeGDI6dYfWnIrsXt0FT-3" style="edgeStyle=orthogonalEdgeStyle;rounded=0;orthogonalLoop=1;jettySize=auto;html=1;exitX=0;exitY=0;exitDx=0;exitDy=20;exitPerimeter=0;curved=1;" edge="1" parent="1" source="jKeGDI6dYfWnIrsXt0FT-1" target="jKeGDI6dYfWnIrsXt0FT-2">
          <mxGeometry relative="1" as="geometry" />
        </mxCell>
        <mxCell id="jKeGDI6dYfWnIrsXt0FT-18" value="" style="edgeStyle=orthogonalEdgeStyle;shape=connector;rounded=0;orthogonalLoop=1;jettySize=auto;html=1;labelBackgroundColor=default;strokeColor=default;fontFamily=Helvetica;fontSize=11;fontColor=default;endArrow=none;entryX=0;entryY=0.5;entryDx=0;entryDy=0;" edge="1" parent="1" source="jKeGDI6dYfWnIrsXt0FT-1" target="jKeGDI6dYfWnIrsXt0FT-4">
          <mxGeometry relative="1" as="geometry" />
        </mxCell>
        <mxCell id="jKeGDI6dYfWnIrsXt0FT-1" value="" style="shape=cube;whiteSpace=wrap;html=1;boundedLbl=1;backgroundOutline=1;darkOpacity=0.05;darkOpacity2=0.1;size=20;flipH=1;" vertex="1" parent="1">
          <mxGeometry x="80" y="440" width="60" height="60" as="geometry" />
        </mxCell>
        <mxCell id="jKeGDI6dYfWnIrsXt0FT-2" value="Channel Attention Module&lt;br&gt;&lt;br&gt;" style="rounded=1;whiteSpace=wrap;html=1;" vertex="1" parent="1">
          <mxGeometry x="190" y="370" width="80" height="80" as="geometry" />
        </mxCell>
        <mxCell id="jKeGDI6dYfWnIrsXt0FT-4" value="" style="ellipse;whiteSpace=wrap;html=1;aspect=fixed;" vertex="1" parent="1">
          <mxGeometry x="332.5" y="460" width="20" height="20" as="geometry" />
        </mxCell>
        <mxCell id="jKeGDI6dYfWnIrsXt0FT-13" value="" style="endArrow=none;html=1;rounded=0;exitX=0;exitY=0;exitDx=0;exitDy=0;entryX=1;entryY=1;entryDx=0;entryDy=0;" edge="1" parent="1" source="jKeGDI6dYfWnIrsXt0FT-4" target="jKeGDI6dYfWnIrsXt0FT-4">
          <mxGeometry width="50" height="50" relative="1" as="geometry">
            <mxPoint x="384" y="525" as="sourcePoint" />
            <mxPoint x="434" y="475" as="targetPoint" />
          </mxGeometry>
        </mxCell>
        <mxCell id="jKeGDI6dYfWnIrsXt0FT-14" value="" style="endArrow=none;html=1;rounded=0;labelBackgroundColor=default;strokeColor=default;fontFamily=Helvetica;fontSize=11;fontColor=default;shape=connector;exitX=0;exitY=1;exitDx=0;exitDy=0;entryX=1;entryY=0;entryDx=0;entryDy=0;" edge="1" parent="1" source="jKeGDI6dYfWnIrsXt0FT-4" target="jKeGDI6dYfWnIrsXt0FT-4">
          <mxGeometry width="50" height="50" relative="1" as="geometry">
            <mxPoint x="230" y="595" as="sourcePoint" />
            <mxPoint x="280" y="545" as="targetPoint" />
          </mxGeometry>
        </mxCell>
        <mxCell id="jKeGDI6dYfWnIrsXt0FT-17" value="" style="endArrow=classic;html=1;rounded=0;labelBackgroundColor=default;strokeColor=default;fontFamily=Helvetica;fontSize=11;fontColor=default;shape=connector;exitX=1;exitY=0.5;exitDx=0;exitDy=0;entryX=0;entryY=0.5;entryDx=0;entryDy=0;edgeStyle=orthogonalEdgeStyle;curved=1;" edge="1" parent="1" source="jKeGDI6dYfWnIrsXt0FT-2" target="jKeGDI6dYfWnIrsXt0FT-4">
          <mxGeometry width="50" height="50" relative="1" as="geometry">
            <mxPoint x="200" y="600" as="sourcePoint" />
            <mxPoint x="250" y="550" as="targetPoint" />
          </mxGeometry>
        </mxCell>
        <mxCell id="jKeGDI6dYfWnIrsXt0FT-36" style="edgeStyle=orthogonalEdgeStyle;shape=connector;rounded=0;orthogonalLoop=1;jettySize=auto;html=1;exitX=1;exitY=0.5;exitDx=0;exitDy=0;entryX=0;entryY=0.5;entryDx=0;entryDy=0;labelBackgroundColor=default;strokeColor=default;fontFamily=Helvetica;fontSize=11;fontColor=default;endArrow=none;curved=1;" edge="1" parent="1" source="jKeGDI6dYfWnIrsXt0FT-23" target="jKeGDI6dYfWnIrsXt0FT-24">
          <mxGeometry relative="1" as="geometry" />
        </mxCell>
        <mxCell id="jKeGDI6dYfWnIrsXt0FT-23" value="Spatial&amp;nbsp; &amp;nbsp; Attention&amp;nbsp; &amp;nbsp; &amp;nbsp; Module&amp;nbsp; &amp;nbsp;" style="rounded=1;whiteSpace=wrap;html=1;" vertex="1" parent="1">
          <mxGeometry x="410" y="370" width="100" height="80" as="geometry" />
        </mxCell>
        <mxCell id="jKeGDI6dYfWnIrsXt0FT-24" value="" style="ellipse;whiteSpace=wrap;html=1;aspect=fixed;" vertex="1" parent="1">
          <mxGeometry x="565" y="460" width="20" height="20" as="geometry" />
        </mxCell>
        <mxCell id="jKeGDI6dYfWnIrsXt0FT-25" value="" style="endArrow=none;html=1;rounded=0;exitX=0;exitY=0;exitDx=0;exitDy=0;entryX=1;entryY=1;entryDx=0;entryDy=0;" edge="1" parent="1" source="jKeGDI6dYfWnIrsXt0FT-24" target="jKeGDI6dYfWnIrsXt0FT-24">
          <mxGeometry width="50" height="50" relative="1" as="geometry">
            <mxPoint x="614" y="525" as="sourcePoint" />
            <mxPoint x="664" y="475" as="targetPoint" />
          </mxGeometry>
        </mxCell>
        <mxCell id="jKeGDI6dYfWnIrsXt0FT-26" value="" style="endArrow=none;html=1;rounded=0;labelBackgroundColor=default;strokeColor=default;fontFamily=Helvetica;fontSize=11;fontColor=default;shape=connector;exitX=0;exitY=1;exitDx=0;exitDy=0;entryX=1;entryY=0;entryDx=0;entryDy=0;" edge="1" parent="1" source="jKeGDI6dYfWnIrsXt0FT-24" target="jKeGDI6dYfWnIrsXt0FT-24">
          <mxGeometry width="50" height="50" relative="1" as="geometry">
            <mxPoint x="460" y="595" as="sourcePoint" />
            <mxPoint x="510" y="545" as="targetPoint" />
          </mxGeometry>
        </mxCell>
        <mxCell id="jKeGDI6dYfWnIrsXt0FT-29" value="" style="curved=1;endArrow=classic;html=1;rounded=0;labelBackgroundColor=default;strokeColor=default;fontFamily=Helvetica;fontSize=11;fontColor=default;shape=connector;exitX=1;exitY=0.5;exitDx=0;exitDy=0;entryX=0;entryY=0.5;entryDx=0;entryDy=0;edgeStyle=orthogonalEdgeStyle;" edge="1" parent="1" source="jKeGDI6dYfWnIrsXt0FT-4" target="jKeGDI6dYfWnIrsXt0FT-23">
          <mxGeometry width="50" height="50" relative="1" as="geometry">
            <mxPoint x="390" y="490" as="sourcePoint" />
            <mxPoint x="410" y="530" as="targetPoint" />
          </mxGeometry>
        </mxCell>
        <mxCell id="jKeGDI6dYfWnIrsXt0FT-30" value="" style="shape=cube;whiteSpace=wrap;html=1;boundedLbl=1;backgroundOutline=1;darkOpacity=0.05;darkOpacity2=0.1;fontFamily=Helvetica;fontSize=11;fontColor=default;flipH=1;size=10;" vertex="1" parent="1">
          <mxGeometry x="200" y="425" width="60" height="20" as="geometry" />
        </mxCell>
        <mxCell id="jKeGDI6dYfWnIrsXt0FT-33" value="" style="shape=cube;whiteSpace=wrap;html=1;boundedLbl=1;backgroundOutline=1;darkOpacity=0.05;darkOpacity2=0.1;fontFamily=Helvetica;fontSize=11;fontColor=default;flipH=1;size=10;" vertex="1" parent="1">
          <mxGeometry x="480" y="382.5" width="20" height="55" as="geometry" />
        </mxCell>
        <mxCell id="jKeGDI6dYfWnIrsXt0FT-35" value="" style="endArrow=classic;html=1;rounded=0;labelBackgroundColor=default;strokeColor=default;fontFamily=Helvetica;fontSize=11;fontColor=default;shape=connector;exitX=1;exitY=0.5;exitDx=0;exitDy=0;entryX=0;entryY=0.5;entryDx=0;entryDy=0;" edge="1" parent="1" source="jKeGDI6dYfWnIrsXt0FT-4" target="jKeGDI6dYfWnIrsXt0FT-24">
          <mxGeometry width="50" height="50" relative="1" as="geometry">
            <mxPoint x="460" y="530" as="sourcePoint" />
            <mxPoint x="510" y="480" as="targetPoint" />
          </mxGeometry>
        </mxCell>
      </root>
    </mxGraphModel>
  </diagram>
</mxfile>
